# xmcd CD database file generated by Grip 3.3.1
# 
# Track frame offsets:
#       150
#       15424
#       34732
#       47933
#       61201
#       82430
#       106715
#       124183
#       140200
#       160139
#       180752
# 
# Disc length: 2689 seconds
# 
# Revision: 2
# Processed by: cddbd v1.5.2PL0 Copyright (c) Steve Scherf et al.
# Submitted via: Grip 3.3.1
# 
DISCID=8e0a7f0b
DTITLE=Dinosau - A Little Crime
DYEAR=2007
DGENRE=Pop
TTITLE0=Derr lady
TTITLE1=A Little Crime
TTITLE2=Pärris
TTITLE3=Baby hey
TTITLE4=Lemon sweet
TTITLE5=A thousand bottles a day
TTITLE6=Supermann
TTITLE7=Squirrel song
TTITLE8=Derr derr fish
TTITLE9=Moskito lover
TTITLE10=It's like a bubble
EXTD=
EXTT0=
EXTT1=
EXTT2=
EXTT3=
EXTT4=
EXTT5=
EXTT6=
EXTT7=
EXTT8=
EXTT9=
EXTT10=
PLAYORDER=
